<svg width="206" height="96" viewBox="0 0 206 96" fill="none" xmlns="http://www.w3.org/2000/svg">
<path d="M17.7931 29.3448C18.023 29.2529 18.1839 29.2759 18.2759 29.4138C18.4138 29.5057 18.4828 29.7126 18.4828 30.0345V70.2414C18.4828 71.2989 18.5057 72.2874 18.5517 73.2069C18.6437 74.1264 18.8046 74.954 19.0345 75.6897C19.2644 76.3793 19.6322 76.954 20.1379 77.4138C20.6437 77.8736 21.3563 78.1724 22.2759 78.3103C22.5517 78.3563 22.6897 78.4943 22.6897 78.7241C22.6897 78.908 22.5517 79 22.2759 79H1.44828C1.21839 79 1.10345 78.908 1.10345 78.7241C1.10345 78.4943 1.21839 78.3563 1.44828 78.3103C2.55172 78.1724 3.4023 77.8736 4 77.4138C4.5977 76.954 5.03448 76.3793 5.31034 75.6897C5.63218 74.954 5.81609 74.1264 5.86207 73.2069C5.90805 72.2874 5.93103 71.2989 5.93103 70.2414V44.931C5.93103 43.8736 5.93103 42.8621 5.93103 41.8966C5.97701 40.8851 5.88506 39.9885 5.65517 39.2069C5.47126 38.3793 5.10345 37.7126 4.55172 37.2069C4.04598 36.6552 3.24138 36.3103 2.13793 36.1724C1.90805 36.1264 1.7931 36.0345 1.7931 35.8966C1.7931 35.7126 1.90805 35.5747 2.13793 35.4828L17.7931 29.3448ZM29.931 44.5172C31.4943 44.5172 32.9425 44.7931 34.2759 45.3448C35.6092 45.8966 36.7356 46.6782 37.6552 47.6897C38.6207 48.6552 39.3563 49.8506 39.8621 51.2759C40.4138 52.6552 40.6897 54.2184 40.6897 55.9655V70.2414C40.6897 71.2989 40.7126 72.2874 40.7586 73.2069C40.8506 74.1264 41.0345 74.954 41.3103 75.6897C41.6322 76.3793 42.092 76.954 42.6897 77.4138C43.2874 77.8736 44.1149 78.1724 45.1724 78.3103C45.4483 78.3563 45.5862 78.4943 45.5862 78.7241C45.5862 78.908 45.4483 79 45.1724 79H24.3448C24.1149 79 24 78.908 24 78.7241C24 78.4943 24.1149 78.3563 24.3448 78.3103C25.2644 78.1724 25.977 77.8736 26.4828 77.4138C26.9885 76.954 27.3563 76.3793 27.5862 75.6897C27.8621 74.954 28.023 74.1264 28.069 73.2069C28.1149 72.2874 28.1379 71.2989 28.1379 70.2414V55.9655C28.1379 53.9885 27.8391 52.4253 27.2414 51.2759C26.6897 50.0805 25.931 49.4828 24.9655 49.4828C24 49.4828 23.1264 50.0575 22.3448 51.2069C21.5632 52.3563 20.8736 53.7356 20.2759 55.3448C19.7241 56.954 19.2874 58.6552 18.9655 60.4483C18.6897 62.2414 18.5287 63.7586 18.4828 65H17.7931L18.2069 57C18.6667 54.8851 19.2414 53.046 19.931 51.4828C20.6667 49.9195 21.5172 48.6322 22.4828 47.6207C23.4943 46.5632 24.5977 45.7816 25.7931 45.2759C27.0345 44.7701 28.4138 44.5172 29.931 44.5172ZM62.5959 44.5172C64.9867 44.5172 67.1936 44.954 69.2166 45.8276C71.2856 46.7011 73.0557 47.9195 74.5269 49.4828C76.0442 51 77.2166 52.8391 78.0442 55C78.8718 57.1149 79.2856 59.4138 79.2856 61.8966C79.2856 64.3793 78.8488 66.7241 77.9752 68.931C77.1476 71.092 75.9752 72.977 74.458 74.5862C72.9867 76.1494 71.2166 77.3908 69.1476 78.3103C67.1246 79.2299 64.9407 79.6897 62.5959 79.6897C60.2051 79.6897 57.9752 79.2529 55.9063 78.3793C53.8833 77.5057 52.1131 76.3103 50.5959 74.7931C49.1246 73.2299 47.9752 71.3908 47.1476 69.2759C46.32 67.1149 45.9063 64.7931 45.9063 62.3103C45.9063 59.8276 46.32 57.5057 47.1476 55.3448C48.0212 53.1379 49.2166 51.2529 50.7338 49.6897C52.2511 48.0805 54.0212 46.8161 56.0442 45.8966C58.0672 44.977 60.2511 44.5172 62.5959 44.5172ZM62.5959 46.5862C61.9062 46.5862 61.2626 46.954 60.6649 47.6897C60.1131 48.3793 59.6534 49.4138 59.2856 50.7931C58.9177 52.1264 58.6189 53.7586 58.389 55.6897C58.2051 57.6207 58.1131 59.8276 58.1131 62.3103C58.1131 64.7931 58.2051 67 58.389 68.931C58.5729 70.8161 58.8488 72.4023 59.2166 73.6897C59.6304 74.977 60.1131 75.9655 60.6649 76.6552C61.2166 77.2989 61.8603 77.6207 62.5959 77.6207C63.2856 77.6207 63.9062 77.2529 64.458 76.5172C65.0097 75.7816 65.4695 74.7471 65.8373 73.4138C66.2511 72.0345 66.5499 70.3793 66.7338 68.4483C66.9637 66.5172 67.0787 64.3333 67.0787 61.8966C67.0787 59.4598 66.9867 57.2989 66.8028 55.4138C66.6189 53.4828 66.32 51.8736 65.9063 50.5862C65.5384 49.2989 65.0787 48.3103 64.5269 47.6207C63.9752 46.931 63.3315 46.5862 62.5959 46.5862ZM120.271 60.5172C120.271 62.954 119.949 65.3218 119.305 67.6207C118.708 69.9195 117.788 71.9655 116.547 73.7586C115.351 75.5517 113.857 77 112.064 78.1034C110.271 79.1609 108.179 79.6897 105.788 79.6897C104.363 79.6897 103.076 79.5057 101.926 79.1379C100.823 78.7701 99.8572 78.3103 99.0296 77.7586V86.1034C99.0296 87.2069 99.0526 88.2184 99.0986 89.1379C99.1906 90.0575 99.3745 90.8621 99.6503 91.5517C99.9262 92.2414 100.363 92.8161 100.961 93.2759C101.604 93.7356 102.455 94.0345 103.512 94.1724C103.788 94.2184 103.926 94.3333 103.926 94.5172C103.926 94.7471 103.788 94.8621 103.512 94.8621H81.9952C81.7653 94.8621 81.6503 94.7471 81.6503 94.5172C81.6503 94.3333 81.7653 94.2184 81.9952 94.1724C83.0986 94.0345 83.9492 93.7356 84.5469 93.2759C85.1446 92.8161 85.5814 92.2414 85.8572 91.5517C86.1791 90.8621 86.363 90.0575 86.4089 89.1379C86.4549 88.2184 86.4779 87.2069 86.4779 86.1034V60.1034C86.4779 59.046 86.4779 58.0345 86.4779 57.069C86.5239 56.0575 86.4319 55.1609 86.202 54.3793C86.0181 53.5517 85.6503 52.8851 85.0986 52.3793C84.5929 51.8276 83.7883 51.4828 82.6848 51.3448C82.4549 51.2989 82.34 51.2069 82.34 51.069C82.34 50.8851 82.4549 50.7471 82.6848 50.6552L98.34 44.5172C98.5699 44.4253 98.7308 44.4483 98.8227 44.5862C98.9607 44.6782 99.0296 44.8851 99.0296 45.2069V48.7931C100.041 47.6897 101.305 46.7011 102.823 45.8276C104.34 44.954 105.949 44.5172 107.65 44.5172C109.673 44.5172 111.466 44.931 113.03 45.7586C114.593 46.5402 115.903 47.6437 116.961 49.069C118.064 50.4943 118.892 52.1954 119.443 54.1724C119.995 56.1034 120.271 58.2184 120.271 60.5172ZM107.374 64.2414C107.374 59 106.984 55.2299 106.202 52.931C105.466 50.6322 104.363 49.4828 102.892 49.4828C102.248 49.4828 101.673 49.7126 101.168 50.1724C100.708 50.5862 100.317 51.2759 99.9952 52.2414C99.6733 53.2069 99.4434 54.4483 99.3055 55.9655C99.1676 57.4368 99.0986 59.2069 99.0986 61.2759V73.3448C99.4664 74.4023 100.041 75.2759 100.823 75.9655C101.65 76.6092 102.478 76.931 103.305 76.931C104.777 76.931 105.811 75.8736 106.409 73.7586C107.053 71.5977 107.374 68.4253 107.374 64.2414ZM161.209 60.5172C161.209 62.954 160.887 65.3218 160.243 67.6207C159.645 69.9195 158.726 71.9655 157.484 73.7586C156.289 75.5517 154.795 77 153.002 78.1034C151.209 79.1609 149.117 79.6897 146.726 79.6897C145.3 79.6897 144.013 79.5057 142.864 79.1379C141.76 78.7701 140.795 78.3103 139.967 77.7586V86.1034C139.967 87.2069 139.99 88.2184 140.036 89.1379C140.128 90.0575 140.312 90.8621 140.588 91.5517C140.864 92.2414 141.3 92.8161 141.898 93.2759C142.542 93.7356 143.392 94.0345 144.45 94.1724C144.726 94.2184 144.864 94.3333 144.864 94.5172C144.864 94.7471 144.726 94.8621 144.45 94.8621H122.933C122.703 94.8621 122.588 94.7471 122.588 94.5172C122.588 94.3333 122.703 94.2184 122.933 94.1724C124.036 94.0345 124.887 93.7356 125.484 93.2759C126.082 92.8161 126.519 92.2414 126.795 91.5517C127.117 90.8621 127.3 90.0575 127.346 89.1379C127.392 88.2184 127.415 87.2069 127.415 86.1034V60.1034C127.415 59.046 127.415 58.0345 127.415 57.069C127.461 56.0575 127.369 55.1609 127.14 54.3793C126.956 53.5517 126.588 52.8851 126.036 52.3793C125.53 51.8276 124.726 51.4828 123.622 51.3448C123.392 51.2989 123.277 51.2069 123.277 51.069C123.277 50.8851 123.392 50.7471 123.622 50.6552L139.277 44.5172C139.507 44.4253 139.668 44.4483 139.76 44.5862C139.898 44.6782 139.967 44.8851 139.967 45.2069V48.7931C140.979 47.6897 142.243 46.7011 143.76 45.8276C145.277 44.954 146.887 44.5172 148.588 44.5172C150.611 44.5172 152.404 44.931 153.967 45.7586C155.53 46.5402 156.841 47.6437 157.898 49.069C159.002 50.4943 159.829 52.1954 160.381 54.1724C160.933 56.1034 161.209 58.2184 161.209 60.5172ZM148.312 64.2414C148.312 59 147.921 55.2299 147.14 52.931C146.404 50.6322 145.3 49.4828 143.829 49.4828C143.186 49.4828 142.611 49.7126 142.105 50.1724C141.645 50.5862 141.254 51.2759 140.933 52.2414C140.611 53.2069 140.381 54.4483 140.243 55.9655C140.105 57.4368 140.036 59.2069 140.036 61.2759V73.3448C140.404 74.4023 140.979 75.2759 141.76 75.9655C142.588 76.6092 143.415 76.931 144.243 76.931C145.714 76.931 146.749 75.8736 147.346 73.7586C147.99 71.5977 148.312 68.4253 148.312 64.2414ZM193.627 50.7241C193.627 52.1034 193.305 53.3448 192.661 54.4483C192.063 55.5057 191.121 56.0345 189.834 56.0345C189.098 56.0345 188.27 55.9655 187.351 55.8276C186.477 55.6437 185.627 55.5517 184.799 55.5517C183.971 55.5517 183.19 55.7586 182.454 56.1724C181.719 56.5862 181.098 57.3908 180.592 58.5862L180.178 57.6207C180.546 55.5057 181.006 53.6437 181.558 52.0345C182.155 50.3793 182.822 49 183.558 47.8966C184.293 46.7931 185.098 45.9655 185.971 45.4138C186.891 44.8161 187.857 44.5172 188.868 44.5172C189.65 44.5172 190.339 44.7012 190.937 45.069C191.535 45.4368 192.04 45.9195 192.454 46.5172C192.868 47.069 193.167 47.7126 193.351 48.4483C193.535 49.1839 193.627 49.9425 193.627 50.7241ZM179.902 44.5172C180.132 44.4253 180.293 44.4483 180.385 44.5862C180.523 44.6782 180.592 44.8851 180.592 45.2069V70.2414C180.592 71.2989 180.615 72.2874 180.661 73.2069C180.753 74.1264 180.937 74.954 181.213 75.6897C181.535 76.3793 181.994 76.954 182.592 77.4138C183.19 77.8736 184.017 78.1724 185.075 78.3103C185.351 78.3563 185.489 78.4943 185.489 78.7241C185.489 78.908 185.351 79 185.075 79H163.558C163.328 79 163.213 78.908 163.213 78.7241C163.213 78.4943 163.328 78.3563 163.558 78.3103C164.661 78.1724 165.512 77.8736 166.109 77.4138C166.707 76.954 167.144 76.3793 167.42 75.6897C167.742 74.954 167.925 74.1264 167.971 73.2069C168.017 72.2874 168.04 71.2989 168.04 70.2414V60.1034C168.04 59.046 168.04 58.0345 168.04 57.069C168.086 56.0575 167.994 55.1609 167.765 54.3793C167.581 53.5517 167.213 52.8851 166.661 52.3793C166.155 51.8276 165.351 51.4828 164.247 51.3448C164.017 51.2989 163.902 51.2069 163.902 51.069C163.902 50.8851 164.017 50.7471 164.247 50.6552L179.902 44.5172ZM203.49 73.6207C203.49 74.4943 203.306 75.3218 202.939 76.1034C202.617 76.8391 202.157 77.4828 201.559 78.0345C201.008 78.5402 200.341 78.931 199.559 79.2069C198.824 79.5287 198.042 79.6897 197.214 79.6897C196.387 79.6897 195.582 79.5287 194.801 79.2069C194.065 78.931 193.398 78.5402 192.801 78.0345C192.249 77.4828 191.789 76.8391 191.421 76.1034C191.099 75.3218 190.939 74.4943 190.939 73.6207C190.939 72.7011 191.099 71.8736 191.421 71.1379C191.789 70.3563 192.249 69.7126 192.801 69.2069C193.398 68.6552 194.065 68.2414 194.801 67.9655C195.582 67.6437 196.387 67.4828 197.214 67.4828C198.042 67.4828 198.824 67.6437 199.559 67.9655C200.341 68.2414 201.008 68.6552 201.559 69.2069C202.157 69.7126 202.617 70.3563 202.939 71.1379C203.306 71.8736 203.49 72.7011 203.49 73.6207Z" fill="white"/>
<path d="M134.838 5.36523C135.072 5.36523 135.266 5.44141 135.418 5.59375C135.582 5.73438 135.676 5.91602 135.699 6.13867C135.969 8.4707 136.273 10.4219 136.613 11.9922C136.953 13.5625 137.41 14.8457 137.984 15.8418C138.57 16.8379 139.355 17.623 140.34 18.1973C141.324 18.7598 142.59 19.1992 144.137 19.5156C145.684 19.832 147.594 20.1074 149.867 20.3418C150.113 20.3652 150.307 20.4531 150.447 20.6055C150.6 20.7578 150.676 20.9453 150.676 21.168C150.676 21.4023 150.6 21.5957 150.447 21.748C150.307 21.9004 150.113 21.9941 149.867 22.0293C147.594 22.252 145.684 22.5215 144.137 22.8379C142.59 23.1426 141.324 23.582 140.34 24.1562C139.355 24.7305 138.57 25.5156 137.984 26.5117C137.41 27.5078 136.953 28.791 136.613 30.3613C136.273 31.9316 135.969 33.877 135.699 36.1973C135.676 36.4316 135.582 36.6191 135.418 36.7598C135.266 36.9121 135.072 36.9883 134.838 36.9883C134.604 36.9883 134.41 36.9121 134.258 36.7598C134.105 36.6191 134.018 36.4316 133.994 36.1973C133.713 33.877 133.402 31.9316 133.062 30.3613C132.734 28.791 132.277 27.5078 131.691 26.5117C131.117 25.5156 130.338 24.7305 129.354 24.1562C128.369 23.582 127.104 23.1426 125.557 22.8379C124.01 22.5215 122.094 22.252 119.809 22.0293C119.574 21.9941 119.381 21.9004 119.229 21.748C119.076 21.5957 119 21.4023 119 21.168C119 20.9453 119.076 20.7578 119.229 20.6055C119.381 20.4531 119.574 20.3652 119.809 20.3418C122.082 20.0488 123.986 19.7383 125.521 19.4102C127.057 19.0703 128.311 18.6191 129.283 18.0566C130.268 17.4824 131.047 16.709 131.621 15.7363C132.207 14.7637 132.676 13.5039 133.027 11.957C133.379 10.3984 133.701 8.45898 133.994 6.13867C134.018 5.91602 134.105 5.73438 134.258 5.59375C134.41 5.44141 134.604 5.36523 134.838 5.36523ZM121.074 28.0059C121.215 28.0059 121.338 28.0469 121.443 28.1289C121.549 28.2109 121.607 28.3281 121.619 28.4805C121.807 29.8516 121.994 30.9121 122.182 31.6621C122.369 32.4121 122.656 32.9746 123.043 33.3496C123.43 33.7246 124.016 34.0176 124.801 34.2285C125.586 34.4395 126.676 34.6797 128.07 34.9492C128.211 34.9727 128.328 35.0254 128.422 35.1074C128.516 35.2012 128.562 35.3242 128.562 35.4766C128.562 35.6289 128.516 35.752 128.422 35.8457C128.328 35.9395 128.211 35.9922 128.07 36.0039C126.676 36.2383 125.586 36.4492 124.801 36.6367C124.016 36.8359 123.43 37.1289 123.043 37.5156C122.656 37.9023 122.369 38.4766 122.182 39.2383C121.994 40.0117 121.807 41.084 121.619 42.4551C121.584 42.7949 121.402 42.9648 121.074 42.9648C120.922 42.9648 120.799 42.918 120.705 42.8242C120.611 42.7305 120.559 42.6016 120.547 42.4375C120.395 41.3594 120.248 40.4746 120.107 39.7832C119.967 39.0918 119.779 38.541 119.545 38.1309C119.311 37.7324 118.977 37.416 118.543 37.1816C118.109 36.9473 117.535 36.748 116.82 36.584C116.105 36.4199 115.186 36.2266 114.061 36.0039C113.744 35.9453 113.586 35.7695 113.586 35.4766C113.586 35.1719 113.768 34.9961 114.131 34.9492C115.232 34.75 116.141 34.5684 116.855 34.4043C117.57 34.252 118.139 34.0586 118.561 33.8242C118.982 33.5898 119.311 33.2676 119.545 32.8574C119.779 32.4355 119.967 31.8789 120.107 31.1875C120.248 30.4961 120.395 29.6055 120.547 28.5156C120.559 28.3516 120.611 28.2285 120.705 28.1465C120.799 28.0527 120.922 28.0059 121.074 28.0059Z" fill="#FF7800"/>
</svg>
